<svg width="75" height="61" viewBox="0 0 75 61" fill="none" xmlns="http://www.w3.org/2000/svg">
<path d="M74.3964 55.9274C74.3964 57.8142 73.9437 59.8356 72.2837 59.8356C57.3441 61.0485 29.7284 61.4528 6.63984 60.3747C3.62173 60.1052 1.05634 59.9704 0.905433 57.1403L0 4.9863C3.01811 3.36911 14.1851 0 19.165 0C20.0704 0.269526 20.5231 3.77342 20.674 4.17771C27.163 4.17771 68.8129 1.21289 72.7364 2.15623C74.0946 2.96483 74.8491 4.17771 75 4.85154C75 4.85154 74.3964 31.8045 74.3964 55.9274ZM20.674 11.3203L21.4286 52.8279L53.5714 52.9626L54.0241 9.02925C52.2133 9.02925 38.6318 10.2421 20.674 11.3203Z" fill="white"/>
<rect x="12" y="7" width="60" height="47" fill="white"/>
<path d="M9.404 32.18C9.62 24.026 13.238 16.574 20.312 13.82C21.068 13.55 21.77 13.28 22.472 13.712C23.228 13.496 24.254 13.172 25.658 12.956C36.404 11.768 38.888 25.214 38.996 32.99C39.158 42.818 34.406 53.132 24.038 53.132C12.86 53.132 9.188 40.82 9.404 32.18ZM16.532 31.694C16.64 38.768 17.504 50 24.848 50C30.842 50 31.544 38.012 31.706 32.774C31.814 26.672 29.816 15.656 25.388 15.818C19.34 15.98 16.424 23.432 16.532 31.694Z" fill="#E9762B"/>
<path d="M43.43 52.97C43.484 51.458 43.43 49.838 43.43 48.272C43.43 44.384 43.322 40.658 43.214 36.932C43.16 32.828 43.106 28.67 43.106 24.458C43.106 22.676 43.052 20.786 43.106 18.95L43.214 14.954C45.428 13.982 47.696 13.226 49.532 12.74C49.802 12.74 49.856 12.902 49.91 13.01L50.018 13.442C51.962 12.74 54.392 12.254 56.822 12.308C61.952 12.416 67.136 16.196 67.136 23.27C67.136 27.482 64.868 30.506 61.25 33.422C58.388 35.636 54.77 35.906 50.666 35.744H50.612C50.612 39.794 50.936 43.736 50.936 50.594L50.882 52.754C50.882 52.862 50.558 52.97 49.964 53.132C48.722 53.402 47.318 53.564 45.806 53.51C45.32 53.51 43.646 53.402 43.43 52.97ZM50.342 33.638C50.504 33.476 51.098 33.206 51.152 33.206C52.124 32.99 53.258 33.314 54.392 33.044C59.198 31.802 59.954 25.754 59.738 21.65C59.522 19.166 59.09 15.008 54.554 15.17C53.42 15.224 51.962 15.818 50.558 16.682C50.504 17.978 50.45 19.814 50.45 21.002C50.288 24.998 50.126 29.426 50.342 33.638Z" fill="#0D4715"/>
</svg>
